<svg width="111" height="20" viewBox="0 0 111 20" fill="none" xmlns="http://www.w3.org/2000/svg">
<g id="Logon">
<g id="Monzo">
<path id="Vector" d="M0 19.3V0.699754H4.95825V3.19346C5.45365 2.296 6.19008 1.55459 7.08455 1.0528C7.97902 0.551002 8.996 0.308757 10.0209 0.353359C11.074 0.321044 12.1153 0.582669 13.0278 1.10886C13.9404 1.63505 14.6881 2.40498 15.1869 3.33219C17.1283 1.28829 18.6195 0.353359 20.943 0.353359C25.1379 0.353359 27.4959 2.7075 27.4959 7.03913V19.3H22.1564V9.22175C22.1564 6.62379 21.6019 5.44588 19.5561 5.44588C17.4759 5.44588 16.3659 6.7272 16.3659 9.22175V19.3H10.992V9.22175C10.992 6.62379 10.4366 5.44588 8.39082 5.44588C6.31058 5.44588 5.2006 6.7272 5.2006 9.22175V19.3H0Z" fill="#FF4F40"/>
<path id="Vector_2" d="M33.8203 3.12427C35.1818 1.74897 36.9195 0.806036 38.8153 0.413766C40.7112 0.0214948 42.6808 0.197364 44.477 0.919308C46.2731 1.64125 47.8159 2.87711 48.9117 4.47182C50.0075 6.06653 50.6075 7.94905 50.6364 9.88318C50.6724 11.1795 50.4417 12.4693 49.9587 13.673C49.4756 14.8766 48.7506 15.9684 47.8283 16.8809C46.9098 17.8218 45.8086 18.5653 44.5922 19.0657C43.3757 19.5661 42.0698 19.8129 40.7544 19.7908C39.436 19.8271 38.1252 19.5799 36.9108 19.0658C35.6964 18.5517 34.6069 17.7827 33.716 16.8111C31.9353 14.9738 30.9512 12.5094 30.9768 9.95212C30.9718 8.68219 31.2207 7.42405 31.709 6.25156C32.1973 5.07906 32.9151 4.01583 33.8203 3.12427ZM40.789 14.5915C41.7066 14.6304 42.6149 14.3939 43.3968 13.9124C44.1787 13.4309 44.7983 12.7265 45.1759 11.8899C45.5534 11.0534 45.6715 10.123 45.515 9.21877C45.3584 8.31454 44.9344 7.47786 44.2976 6.81657C43.6608 6.15528 42.8404 5.69969 41.942 5.50852C41.0437 5.31734 40.1087 5.39935 39.2574 5.74397C38.4061 6.08858 37.6777 6.68001 37.1659 7.44203C36.6542 8.20405 36.3826 9.10173 36.3861 10.0194C36.3638 11.2088 36.815 12.3585 37.6405 13.2157C38.4661 14.073 39.5985 14.5678 40.789 14.5915Z" fill="#FF4F40"/>
<path id="Vector_3" d="M54.1182 19.3V0.699702H59.3188L59.2498 3.19341C59.7913 2.27429 60.5765 1.5226 61.5188 1.0214C62.4611 0.520193 63.5237 0.288982 64.5892 0.353307C68.4384 0.353307 70.9343 2.77807 70.9343 7.03907V19.3H65.456V9.2217C65.456 6.62374 64.9014 5.44582 62.7867 5.44582C60.6366 5.44582 59.4921 6.72715 59.4921 9.2217V19.3H54.1182Z" fill="#FF4F40"/>
<path id="Vector_4" d="M94.1791 3.12169C95.5405 1.74611 97.2783 0.80292 99.1743 0.410484C101.07 0.0180485 103.04 0.19385 104.836 0.915827C106.633 1.6378 108.176 2.87379 109.272 4.46868C110.367 6.06356 110.967 7.94629 110.996 9.8806C111.032 11.1769 110.801 12.4667 110.318 13.6704C109.835 14.874 109.11 15.9658 108.188 16.8783C107.269 17.8191 106.168 18.5626 104.952 19.0629C103.735 19.5633 102.429 19.8101 101.114 19.7882C99.7957 19.8246 98.4848 19.5774 97.2704 19.0633C96.056 18.5492 94.9665 17.7802 94.0756 16.8085C92.2949 14.9712 91.3108 12.5069 91.3364 9.94954C91.3314 8.67969 91.5803 7.42163 92.0685 6.24916C92.5566 5.07668 93.2742 4.0134 94.1791 3.12169ZM101.15 14.5889C102.068 14.6277 102.976 14.391 103.758 13.9094C104.54 13.4278 105.159 12.7233 105.537 11.8867C105.914 11.0501 106.032 10.1198 105.875 9.21562C105.719 8.31144 105.295 7.47484 104.658 6.81364C104.021 6.15243 103.201 5.69693 102.302 5.50583C101.404 5.31473 100.469 5.39679 99.6177 5.74144C98.7665 6.08608 98.0381 6.67752 97.5263 7.43953C97.0146 8.20153 96.743 9.09919 96.7466 10.0168C96.7245 11.2063 97.1759 12.356 98.0015 13.2132C98.8272 14.0705 99.9597 14.5653 101.15 14.5889Z" fill="#FF4F40"/>
<path id="Vector_5" d="M74.9263 19.2992V15.4216L82.5892 5.51068H74.9263V0.698975H88.7609V5.0987L81.9993 14.4867H88.8997V19.2992H74.9263Z" fill="#FF4F40"/>
</g>
</g>
</svg>
